<?xml version="1.0" standalone="no"?>
<!DOCTYPE svg PUBLIC "-//W3C//DTD SVG 20010904//EN"
 "http://www.w3.org/TR/2001/REC-SVG-20010904/DTD/svg10.dtd">
<svg version="1.0" xmlns="http://www.w3.org/2000/svg"
 width="416.000000pt" height="416.000000pt" viewBox="0 0 416.000000 416.000000"
 preserveAspectRatio="xMidYMid meet">
<metadata>
Created by potrace 1.11, written by Peter Selinger 2001-2013
</metadata>
<g transform="translate(0.000000,416.000000) scale(0.100000,-0.100000)"
fill="#000000" stroke="none">
<path d="M2250 4033 c0 -5 9 -9 20 -9 10 1 20 -3 21 -9 1 -5 9 -15 17 -21 9
-7 12 -16 7 -24 -12 -20 -14 -60 -3 -60 6 0 8 -7 4 -15 -7 -20 4 -19 21 3 13
15 14 14 8 -11 -4 -19 -2 -26 5 -22 6 4 10 -4 10 -19 0 -17 4 -24 14 -20 10 4
12 -2 8 -21 l-5 -26 -21 20 c-15 14 -36 21 -64 21 -23 0 -42 -3 -42 -7 0 -5
-19 -9 -41 -11 -46 -3 -74 -19 -74 -42 0 -9 -11 -16 -27 -18 -23 -3 -27 0 -22
15 4 13 0 12 -16 -6 -13 -15 -24 -21 -28 -15 -9 14 -66 28 -58 15 4 -6 -27
-10 -84 -9 -50 0 -94 -2 -97 -6 -4 -3 31 -6 77 -6 85 0 102 -10 30 -17 -48 -5
-102 -26 -120 -47 -7 -9 -20 -16 -30 -16 -9 0 -29 -9 -42 -20 -14 -10 -28 -16
-32 -13 -4 4 -16 8 -27 10 -19 3 -19 2 -5 -13 20 -19 20 -21 1 -21 -8 0 -15 4
-15 9 0 5 -12 5 -26 2 -19 -5 -25 -4 -20 5 4 6 11 9 16 6 5 -3 11 -1 14 3 3 5
-5 8 -17 7 -12 -1 -28 -3 -35 -4 -6 0 -11 -4 -11 -8 5 -32 -25 -40 -62 -18
-12 8 -59 -13 -59 -26 0 -5 12 -6 28 -3 17 3 35 -1 47 -11 19 -15 19 -15 -10
-13 -24 2 -30 -1 -29 -15 2 -13 -3 -16 -18 -11 -14 4 -18 2 -14 -5 5 -7 -2
-11 -16 -12 -13 0 -18 -3 -12 -5 7 -3 10 -14 7 -25 -3 -10 0 -25 6 -33 9 -10
8 -15 -3 -19 -8 -3 -20 -16 -26 -28 -11 -20 -10 -21 9 -16 27 7 26 3 -1 -23
-24 -22 -21 -30 10 -33 11 0 18 -6 15 -13 -3 -7 -11 -10 -19 -7 -9 3 -14 -2
-15 -13 -1 -11 -2 -26 -3 -34 0 -8 -12 -20 -26 -27 -14 -7 -19 -13 -12 -13 6
0 12 -4 12 -10 0 -5 -7 -10 -15 -10 -9 0 -12 -6 -9 -15 5 -11 -1 -15 -22 -16
-46 -1 -62 -6 -80 -24 -9 -9 -23 -14 -30 -11 -8 3 -11 0 -7 -9 3 -8 9 -13 13
-10 5 3 10 2 13 -2 2 -5 2 -2 0 5 -1 8 2 12 8 10 6 -2 10 -7 10 -11 -1 -4 -1
-13 -1 -21 0 -9 -8 -12 -24 -9 -13 3 -27 -1 -31 -8 -6 -8 -4 -10 6 -5 8 4 6 1
-3 -7 -10 -8 -15 -17 -11 -20 3 -4 -2 -7 -12 -7 -13 0 -16 -3 -9 -10 16 -16
42 -2 53 28 10 26 10 25 6 -8 -5 -47 -16 -82 -29 -99 -6 -7 -10 -25 -11 -39 0
-16 -7 -28 -20 -33 -11 -4 -14 -8 -7 -8 6 -1 12 -10 12 -21 0 -11 4 -20 9 -20
9 0 24 39 21 55 -1 5 2 6 6 2 13 -12 13 -37 1 -37 -7 0 -4 -5 5 -11 10 -5 18
-15 18 -20 0 -6 -5 -7 -11 -3 -8 4 -9 -3 -5 -23 6 -25 3 -31 -12 -35 -15 -4
-21 -16 -24 -47 -2 -23 -2 -44 1 -47 2 -2 5 -23 6 -47 2 -48 -21 -98 -42 -90
-7 3 -13 0 -13 -5 0 -6 -11 -23 -25 -38 -14 -15 -25 -35 -25 -45 0 -11 -5 -16
-13 -13 -15 6 -16 -22 -2 -46 8 -13 6 -13 -8 -1 -14 11 -18 11 -22 0 -2 -8 -3
-23 -2 -34 2 -19 -4 -20 -168 -22 -322 -3 -705 -16 -705 -23 0 -13 23 -18 75
-15 28 1 122 5 210 9 157 7 555 14 555 10 0 -2 -6 -9 -13 -16 -16 -16 -47
-121 -50 -166 -1 -19 -8 -34 -18 -37 -20 -7 -49 4 -49 17 0 6 -6 8 -14 5 -7
-3 -37 10 -65 29 -28 19 -54 33 -58 32 -19 -5 -74 13 -68 22 8 13 -17 9 -27
-4 -4 -6 -12 -5 -20 2 -18 15 -75 17 -115 4 -17 -6 -34 -8 -37 -4 -3 3 -6 -1
-6 -9 -1 -10 -4 -9 -11 4 -9 16 -13 15 -40 -12 -30 -30 -44 -35 -138 -47 -38
-4 -60 -13 -76 -30 -12 -13 -27 -24 -34 -24 -7 0 -11 -22 -11 -61 0 -72 21
-249 29 -249 3 0 7 -23 8 -50 3 -56 58 -249 101 -355 251 -611 755 -1042 1402
-1199 265 -65 611 -61 890 9 210 53 448 157 620 271 178 118 359 284 473 434
l34 44 -18 51 c-40 111 -68 168 -105 215 -21 27 -45 49 -51 50 -7 0 -13 4 -13
8 0 9 -64 39 -145 69 -44 16 -47 18 -22 21 15 2 39 2 55 0 15 -2 34 3 42 10 8
7 25 21 37 30 12 9 24 31 28 48 5 26 2 32 -22 44 -15 7 -41 14 -57 16 -28 4
-45 18 -46 37 0 6 47 12 72 9 3 -1 12 5 18 13 10 12 9 15 -6 15 -15 0 -13 4
11 20 28 18 28 19 5 16 -14 -2 -33 -7 -42 -10 -9 -4 -27 -6 -40 -4 -20 3 -23
9 -24 53 -1 67 18 112 71 160 31 29 48 54 56 86 11 42 14 45 40 41 21 -3 31 1
36 14 3 11 17 29 30 41 13 12 23 30 23 40 0 23 -31 70 -59 89 -13 10 -20 22
-17 32 3 10 1 24 -4 32 -8 12 -10 10 -10 -9 0 -41 -12 -15 -17 35 -2 26 -8 53
-14 60 -6 7 -7 19 -3 25 4 7 3 9 -4 5 -6 -3 -13 2 -15 11 -3 10 -8 28 -12 41
-4 13 -2 22 4 22 6 0 15 -15 20 -32 5 -18 10 -27 10 -20 1 7 6 10 12 7 6 -4 5
2 -3 14 -11 18 -10 23 7 35 19 15 19 17 -7 20 -14 1 -37 58 -37 93 -1 41 -30
135 -56 180 -14 25 -25 50 -25 55 0 12 -87 145 -100 153 -5 3 -10 -2 -10 -11
0 -15 -3 -15 -21 4 -11 12 -41 52 -66 89 -48 70 -63 116 -34 106 13 -5 14 -3
4 8 -18 18 -16 34 1 19 8 -6 25 -10 38 -7 21 4 21 4 -3 6 -15 0 -32 8 -39 16
-7 9 -19 14 -27 11 -8 -3 -12 -2 -9 3 3 5 -1 14 -9 21 -8 7 -12 16 -9 21 3 5
1 9 -3 9 -5 0 -17 24 -28 53 -33 95 -53 126 -92 142 -20 8 -38 13 -41 10 -3
-3 -16 2 -29 10 -28 19 -29 15 -3 -31 12 -20 19 -39 16 -41 -3 -3 -1 -14 5
-24 24 -45 -29 -6 -74 54 -23 31 -32 36 -43 26 -8 -6 -15 -9 -15 -5 -1 3 -2
12 -3 19 -1 6 -8 11 -15 9 -7 -1 -10 2 -6 7 3 6 -1 21 -9 33 -26 39 -4 52 29
18 32 -34 62 -41 50 -12 -4 9 -8 22 -8 29 0 7 -3 10 -7 8 -3 -2 -26 19 -50 47
-44 49 -92 86 -74 57 4 -8 -15 3 -44 24 -29 20 -52 32 -52 27 0 -6 -5 -10 -11
-10 -6 0 -9 6 -6 14 4 10 -7 19 -33 30 -27 11 -37 20 -35 33 2 13 -13 25 -54
45 -37 18 -47 26 -29 23 15 -2 30 1 33 6 4 5 21 7 40 5 26 -3 32 -1 28 10 -3
8 -9 14 -15 14 -5 0 -6 -4 -3 -10 3 -5 2 -10 -4 -10 -5 0 -11 6 -13 12 -4 10
-10 10 -30 1 -21 -9 -30 -9 -45 2 -10 8 -13 15 -6 15 6 0 15 -5 18 -11 5 -7
13 -5 24 5 34 31 99 -2 92 -47 -1 -4 132 -6 294 -5 162 1 295 4 295 7 0 4 -9
12 -21 19 -12 8 -18 9 -14 3 4 -8 -16 -11 -64 -11 -46 0 -71 4 -74 13 -4 8 -8
9 -14 2 -5 -7 -59 -11 -133 -12 -69 -1 -151 -4 -182 -7 -34 -3 -58 -1 -58 4 0
6 9 10 21 10 26 0 20 21 -10 36 -16 8 -19 13 -9 17 7 3 4 6 -8 6 -31 1 -50 26
-22 28 12 1 28 10 37 19 15 15 14 16 -3 10 -12 -4 -23 -1 -28 6 -13 21 -9 31
7 18 18 -15 38 -3 30 18 -3 9 -3 13 1 9 4 -4 13 -2 20 4 8 7 14 6 20 -2 4 -8
3 -9 -4 -5 -7 4 -12 2 -12 -3 0 -6 5 -11 11 -11 5 0 7 -5 3 -11 -5 -8 -9 -8
-14 1 -10 16 -18 1 -16 -29 1 -17 7 -25 23 -26 12 -1 25 5 28 13 3 10 0 12
-10 8 -8 -3 -15 -1 -15 3 0 5 7 12 16 15 8 3 13 10 9 16 -3 5 -1 19 5 30 9 17
8 20 -7 20 -15 0 -15 2 -4 9 12 8 8 11 -15 16 -16 3 -41 10 -56 14 -16 5 -28
6 -28 2 0 -4 -17 -20 -37 -34 -21 -15 -31 -27 -24 -27 8 0 11 -3 7 -7 -10 -11
-66 -12 -66 -2 0 5 6 9 13 9 21 0 80 47 67 55 -5 3 -8 10 -6 14 6 9 -82 31
-120 31 -13 0 -24 -4 -24 -10 0 -5 -4 -10 -10 -10 -5 0 -7 7 -4 15 5 11 -1 15
-22 15 -16 0 -46 3 -66 6 -22 4 -38 3 -38 -3z m224 -42 c4 -5 -3 -7 -14 -4
-23 6 -26 13 -6 13 8 0 17 -4 20 -9z m-134 -46 c10 -12 10 -15 -4 -15 -9 0
-16 7 -16 15 0 8 2 15 4 15 2 0 9 -7 16 -15z m130 5 c0 -5 -2 -10 -4 -10 -3 0
-8 5 -11 10 -3 6 -1 10 4 10 6 0 11 -4 11 -10z m138 -35 c-2 -9 -8 -12 -16 -6
-12 7 -12 12 0 30 10 17 14 18 16 6 2 -8 2 -22 0 -30z m-224 4 c4 6 15 11 24
11 16 -1 16 -1 0 -11 -10 -5 -18 -17 -18 -25 0 -25 -25 -10 -28 17 -2 17 0 20
6 10 7 -9 12 -10 16 -2z m56 -29 c0 -5 14 -8 30 -8 17 1 32 -1 34 -3 2 -2 -14
-24 -35 -48 -22 -24 -37 -37 -33 -28 3 10 1 17 -5 17 -6 0 -11 -7 -11 -15 0
-8 -6 -15 -14 -15 -8 0 -13 11 -12 29 1 21 4 26 12 20 8 -6 14 -4 18 6 3 9 10
13 16 10 6 -4 7 -11 4 -17 -4 -6 -1 -9 6 -6 26 8 21 27 -9 43 -31 16 -44 39
-16 29 8 -4 15 -10 15 -14z m120 10 c0 -5 -2 -10 -4 -10 -3 0 -8 5 -11 10 -3
6 -1 10 4 10 6 0 11 -4 11 -10z m-36 -85 c3 -8 1 -15 -3 -15 -5 0 -11 7 -15
15 -3 8 -1 15 3 15 5 0 11 -7 15 -15z m-316 -38 c10 4 13 2 8 -5 -8 -14 -56
-16 -56 -4 0 15 13 23 23 13 5 -5 16 -7 25 -4z m414 -9 c-9 -9 -15 -9 -24 0
-9 9 -7 12 12 12 19 0 21 -3 12 -12z m-605 -58 c4 -13 3 -13 -6 0 -7 10 -11
11 -11 3 0 -7 -7 -10 -15 -7 -23 9 -18 26 7 22 12 -2 23 -10 25 -18z m513 -31
c0 -12 -37 -12 -44 0 -7 11 14 20 32 13 6 -2 12 -8 12 -13z m-1031 -242 c-2
-1 -13 -9 -24 -17 -19 -14 -19 -14 -6 3 7 9 18 17 24 17 6 0 8 -1 6 -3z m556
-18 c-7 12 -1 13 31 8 21 -4 40 -11 42 -17 2 -5 10 -10 17 -10 15 0 21 -6 83
-78 39 -46 78 -68 109 -63 7 1 15 -9 19 -23 3 -14 12 -31 20 -37 12 -10 13 -9
8 6 -6 15 -4 16 12 7 11 -6 28 -20 39 -32 15 -17 16 -23 6 -29 -10 -7 -6 -16
18 -38 26 -26 32 -39 36 -91 3 -36 13 -74 25 -94 11 -18 20 -41 20 -51 0 -11
4 -15 12 -11 8 5 9 2 5 -9 -4 -10 -2 -16 5 -14 7 1 14 -7 16 -18 2 -11 14 -33
27 -50 13 -18 25 -52 29 -87 6 -49 4 -63 -18 -107 -32 -62 -32 -62 -1 -111 15
-24 27 -60 30 -97 4 -32 11 -74 17 -93 15 -46 14 -59 -21 -172 -47 -152 -92
-222 -183 -283 -55 -38 -57 -41 -51 -84 4 -32 -3 -89 -38 -296 -24 -141 -29
-196 -19 -214 13 -25 13 -88 0 -96 -6 -3 -10 -10 -10 -14 0 -9 31 -8 48 3 13
8 15 -1 13 -44 -1 -18 1 -21 7 -11 8 11 11 9 17 -10 6 -18 2 -28 -19 -46 -15
-13 -36 -23 -47 -23 -12 0 -19 -7 -19 -19 0 -11 -3 -26 -6 -34 -3 -9 4 -25 16
-37 17 -17 28 -20 53 -14 18 4 44 8 59 9 15 1 34 8 43 15 14 12 14 15 -1 31
-10 11 -14 25 -10 35 4 10 1 21 -6 25 -10 7 -10 11 0 21 9 9 12 9 12 -5 0 -9
5 -17 11 -17 5 0 8 -4 5 -9 -3 -5 1 -14 8 -20 10 -9 12 -20 6 -42 -5 -17 -5
-29 1 -29 5 0 9 4 9 8 0 4 16 9 36 10 20 2 45 7 55 13 28 15 23 -4 -8 -31
-126 -110 -348 -233 -483 -269 -176 -47 -382 -22 -535 64 -335 188 -633 433
-705 578 -38 78 -35 97 16 97 23 0 42 6 50 18 8 10 13 12 14 4 0 -9 4 -10 19
-1 15 10 24 7 54 -20 33 -31 44 -68 24 -87 -3 -3 -1 -14 5 -24 9 -14 20 -17
45 -13 22 4 50 -2 85 -17 48 -20 63 -22 150 -16 127 8 239 50 142 53 -44 1
-54 11 -30 28 17 13 17 15 2 30 -9 9 -14 20 -11 25 4 7 67 22 81 20 4 -1 10 2
13 7 3 4 27 18 54 31 50 23 92 28 102 12 8 -12 34 10 29 25 -2 5 9 25 24 42
21 25 39 35 79 43 29 5 69 20 90 33 35 22 132 70 212 104 42 18 36 26 -10 12
-104 -31 -305 2 -373 62 -34 30 -93 116 -62 90 13 -11 16 -11 16 3 0 9 -5 16
-11 16 -7 0 -9 9 -5 23 5 20 -1 27 -37 47 -42 23 -42 23 -23 1 15 -16 16 -20
4 -16 -19 8 -41 53 -32 67 4 6 3 8 -3 5 -10 -7 -22 14 -56 98 -15 39 -21 82
-24 194 l-5 143 23 -6 c13 -3 18 -3 12 0 -10 4 -9 13 3 36 18 35 11 50 -11 22
-8 -10 -15 -17 -15 -14 -1 3 -4 14 -6 25 -23 92 41 248 89 218 7 -4 23 -9 36
-11 14 -2 32 -7 42 -13 35 -18 49 -11 47 24 -3 29 0 32 22 30 57 -3 127 -27
153 -51 27 -26 37 -50 15 -36 -8 5 -9 2 -4 -12 21 -49 13 -116 -8 -71 -3 6 -4
0 -1 -15 3 -15 0 -30 -5 -33 -6 -4 -22 -24 -35 -46 -40 -63 -127 -145 -176
-166 -34 -15 -48 -28 -53 -48 -4 -15 -5 -30 -1 -33 3 -3 5 0 5 7 0 15 18 34
49 50 26 14 27 13 57 -42 l15 -28 -47 7 -47 7 6 -39 c8 -54 13 -74 28 -109 12
-29 13 -29 17 -7 3 22 4 23 17 5 17 -21 19 -37 5 -28 -5 3 -10 0 -10 -7 0 -7
9 -19 20 -26 11 -7 20 -9 19 -5 -4 23 2 47 9 37 8 -12 72 -36 72 -27 0 3 -14
21 -31 41 -39 44 -28 50 49 29 31 -9 86 -18 122 -21 l65 -6 -70 16 c-38 9 -88
23 -109 32 -39 16 -39 16 -14 27 14 5 23 16 21 22 -3 7 12 20 34 29 21 9 56
25 79 35 23 11 60 19 82 19 49 0 63 16 26 30 -21 8 -35 6 -68 -10 -62 -29 -80
-26 -119 23 -62 77 -62 75 -7 168 28 46 50 90 50 97 0 7 11 35 25 62 53 105
21 194 -95 254 -40 21 -86 37 -109 39 -23 1 -41 5 -41 10 0 4 -7 7 -16 7 -8 0
-22 7 -31 16 -14 14 -13 21 10 82 34 90 46 137 40 161 -7 29 39 120 85 167 22
23 57 47 78 54 22 6 46 14 54 17 8 4 21 5 28 4 7 -1 12 2 11 6 -4 22 3 24 23
7 12 -10 18 -13 13 -5z m446 -76 c13 -16 12 -17 -3 -4 -10 7 -18 15 -18 17 0
8 8 3 21 -13z m341 -69 c10 -17 15 -34 11 -38 -3 -3 2 -16 13 -28 10 -12 13
-18 7 -14 -21 12 -15 -2 13 -34 15 -16 31 -27 37 -23 6 3 7 1 3 -5 -4 -7 -4
-12 1 -12 4 0 14 -12 20 -28 7 -15 46 -56 87 -91 87 -74 136 -126 60 -63 -29
23 -58 42 -65 42 -8 0 -5 -6 7 -15 14 -11 15 -14 4 -14 -25 0 -77 52 -90 91
-11 31 -16 35 -32 27 -14 -8 -16 -6 -11 7 4 10 2 15 -3 11 -6 -3 -11 3 -11 14
-1 12 3 17 9 13 7 -4 8 -2 4 4 -4 6 -13 9 -20 6 -17 -7 -27 8 -60 88 -16 37
-31 66 -35 64 -5 -3 -6 39 -2 63 2 8 36 -34 53 -65z m28 20 c0 -6 7 -17 16
-24 8 -8 20 -23 25 -34 10 -20 10 -21 -5 -2 -9 11 -16 16 -16 11 0 -5 -14 10
-31 33 -17 23 -27 46 -24 52 7 12 34 -16 35 -36z m-365 0 c9 -15 12 -23 6 -20
-11 7 -35 46 -28 46 3 0 12 -12 22 -26z m323 -119 c9 -22 21 -44 27 -50 6 -5
12 -23 13 -40 1 -25 -4 -19 -31 33 -18 35 -33 56 -35 47 -2 -8 -8 -13 -13 -10
-5 4 -6 -2 -2 -12 6 -16 4 -16 -16 2 -13 11 -26 19 -29 17 -4 -2 -8 2 -11 9
-2 7 1 9 8 5 6 -4 11 -2 11 4 0 6 5 8 11 4 8 -4 9 0 4 15 -5 15 -2 21 9 21 10
0 16 9 17 23 0 25 1 24 37 -68z m-238 -62 c0 -2 -4 -1 -10 2 -5 3 -10 -4 -11
-17 0 -13 -9 9 -19 47 -25 94 -25 96 10 30 17 -31 30 -59 30 -62z m-61 47 c12
-37 7 -38 -24 -4 -30 32 -30 34 -6 34 12 0 23 -11 30 -30z m195 -6 c3 -8 2
-13 -3 -9 -5 3 -12 -1 -14 -7 -3 -7 -6 -3 -6 10 -1 25 14 30 23 6z m-66 -27
c-2 -15 2 -21 12 -19 12 3 13 1 3 -9 -17 -17 -16 -48 1 -55 8 -3 12 -12 9 -20
-3 -8 0 -14 7 -14 6 0 8 -5 5 -10 -10 -16 5 -51 25 -58 13 -5 16 -12 11 -20
-6 -11 -13 -7 -28 15 -29 40 -75 180 -68 204 8 25 27 14 23 -14z m-146 -12 c2
-19 0 -35 -4 -35 -4 0 -8 16 -8 35 0 19 2 35 4 35 2 0 6 -16 8 -35z m295 3
c-3 -8 -6 -5 -6 6 -1 11 2 17 5 13 3 -3 4 -12 1 -19z m53 -88 c0 -5 -5 -10
-11 -10 -5 0 -7 5 -4 10 3 6 8 10 11 10 2 0 4 -4 4 -10z m45 -21 c11 -17 -1
-21 -15 -4 -8 9 -8 15 -2 15 6 0 14 -5 17 -11z m-49 -46 c23 -31 24 -34 5 -18
-22 19 -46 55 -38 55 3 0 17 -17 33 -37z m67 -1 c-2 -6 3 -9 10 -6 7 2 30 -15
52 -38 l40 -42 -37 28 c-36 25 -52 24 -26 -2 8 -8 8 -12 1 -12 -13 0 -73 66
-73 81 0 6 8 9 18 7 9 -2 16 -9 15 -16z m-103 -16 c0 -3 -4 -8 -10 -11 -5 -3
-10 -1 -10 4 0 6 5 11 10 11 6 0 10 -2 10 -4z m374 -22 c3 -8 2 -12 -4 -9 -6
3 -10 10 -10 16 0 14 7 11 14 -7z m6 -58 c0 -16 -24 12 -26 31 -2 16 -1 16 12
-1 8 -11 14 -24 14 -30z m-25 -6 c10 -11 16 -20 13 -20 -3 0 -13 9 -23 20 -10
11 -16 20 -13 20 3 0 13 -9 23 -20z m-194 -7 c13 -16 12 -17 -3 -4 -10 7 -18
15 -18 17 0 8 8 3 21 -13z m-1231 -23 c0 -5 -4 -10 -10 -10 -5 0 -10 5 -10 10
0 6 5 10 10 10 6 0 10 -4 10 -10z m41 -6 c12 -14 11 -16 -5 -13 -11 2 -21 10
-24 17 -5 17 13 15 29 -4z m1549 -60 c12 -19 20 -38 17 -41 -6 -5 -47 55 -47
70 0 14 9 6 30 -29z m-692 -19 c-3 -3 -13 7 -23 22 l-17 28 23 -22 c12 -12 20
-25 17 -28z m325 15 c19 0 67 -42 67 -59 0 -6 5 -11 10 -11 6 0 10 -7 10 -16
0 -9 -5 -12 -12 -8 -8 5 -9 2 -5 -9 9 -25 4 -22 -60 31 -32 27 -67 54 -78 61
-19 11 -19 12 3 5 21 -5 23 -3 17 18 -7 22 -7 22 12 6 11 -10 27 -18 36 -18z
m289 -155 c8 -7 9 -4 4 10 -4 11 -4 16 0 12 14 -14 36 -82 38 -118 1 -20 12
-49 23 -65 55 -77 87 -159 39 -99 -13 16 -22 33 -20 36 2 4 -3 10 -12 13 -8 3
-12 10 -9 16 3 5 2 10 -3 10 -6 0 -9 8 -8 18 0 9 -5 16 -11 15 -7 -2 -13 3
-13 11 0 7 -7 19 -15 26 -8 7 -15 21 -15 32 0 10 -6 29 -14 41 -9 14 -12 35
-8 57 4 24 7 29 10 15 2 -11 9 -24 14 -30z m-252 5 c0 -6 -9 -5 -20 2 -11 7
-20 16 -20 21 0 4 9 3 20 -3 11 -6 20 -15 20 -20z m318 -65 c-3 -3 -9 2 -12
12 -6 14 -5 15 5 6 7 -7 10 -15 7 -18z m-363 -78 c17 -16 52 -44 78 -62 30
-20 44 -36 37 -40 -14 -9 -112 58 -142 97 -13 17 -26 42 -30 57 l-7 26 17 -25
c9 -14 31 -38 47 -53z m-1091 -98 c-13 -26 -14 -33 -2 -40 10 -7 9 -9 -4 -9
-21 0 -25 49 -6 68 22 22 29 12 12 -19z m1616 10 c0 -6 -4 -7 -10 -4 -5 3 -10
11 -10 16 0 6 5 7 10 4 6 -3 10 -11 10 -16z m-790 -40 c0 -24 -4 -38 -10 -34
-5 3 -10 24 -10 46 0 24 4 38 10 34 6 -3 10 -24 10 -46z m-1689 -66 c-12 -20
-14 -14 -5 12 4 9 9 14 11 11 3 -2 0 -13 -6 -23z m160 -46 c-10 -9 -11 -8 -5
6 3 10 9 15 12 12 3 -3 0 -11 -7 -18z m2413 -162 c6 -11 17 -25 24 -33 14 -16
16 -48 3 -57 -5 -3 -13 0 -17 6 -4 8 -3 9 4 5 7 -4 12 -3 12 2 0 6 -7 13 -16
16 -13 5 -14 1 -9 -23 5 -25 3 -29 -21 -35 -33 -9 -41 -2 -23 21 9 11 10 14 2
9 -9 -5 -13 2 -13 23 0 17 5 31 10 31 6 0 9 3 9 8 -8 49 14 65 35 27z m-3304
-195 c0 -5 -4 -10 -9 -10 -6 0 -13 5 -16 10 -3 6 1 10 9 10 9 0 16 -4 16 -10z
m3191 -27 c-5 -10 -17 -27 -26 -38 -16 -20 -16 -19 -10 5 4 14 14 31 23 38 21
16 24 15 13 -5z m-2331 -10 c0 -10 -4 -14 -8 -8 -4 6 -11 13 -16 18 -5 4 -2 7
7 7 10 0 17 -8 17 -17z m70 5 c0 -13 -27 -21 -46 -14 -8 3 -13 10 -10 15 7 11
56 11 56 -1z m1579 -183 c0 -5 -6 -1 -14 9 -8 11 -15 24 -15 30 0 5 7 1 15
-10 8 -10 14 -23 14 -29z m398 -32 c-3 -10 -5 -2 -5 17 0 19 2 27 5 18 2 -10
2 -26 0 -35z m202 -145 c20 -21 19 -44 -1 -32 -7 4 -8 2 -4 -4 4 -7 3 -12 -3
-12 -15 0 -34 39 -27 56 7 19 12 18 35 -8z m76 -48 c3 -6 -4 -10 -16 -10 -12
0 -27 -7 -33 -15 -7 -9 -16 -12 -25 -6 -11 7 -11 11 -1 23 16 17 66 22 75 8z
m-616 -110 c7 0 10 -4 6 -9 -3 -6 1 -13 8 -18 17 -10 37 -67 36 -102 -1 -18
-5 -12 -14 23 -17 60 -33 80 -41 49 -9 -35 -44 -7 -44 35 0 23 4 31 12 26 8
-5 9 -1 5 12 -7 18 -6 18 7 2 7 -10 19 -18 25 -18z m-1381 -16 c-10 -10 -28 6
-28 24 0 15 1 15 17 -1 9 -9 14 -19 11 -23z m1779 10 c-3 -3 -12 -4 -19 -1 -8
3 -5 6 6 6 11 1 17 -2 13 -5z m-811 -150 c-4 -16 -2 -24 6 -24 9 0 8 -3 -2
-10 -22 -14 -29 -12 -25 8 2 9 4 27 4 40 1 14 5 21 12 16 6 -3 8 -17 5 -30z
m464 -81 c0 -7 -7 -10 -15 -6 -9 3 -13 8 -11 11 3 3 0 12 -7 20 -11 13 -9 14
11 1 12 -8 22 -19 22 -26z m70 -57 c0 -21 -21 -31 -30 -15 -5 7 -6 17 -4 21 9
14 34 9 34 -6z m-350 -216 c0 -5 -4 -10 -10 -10 -5 0 -10 5 -10 10 0 6 5 10
10 10 6 0 10 -4 10 -10z"/>
<path d="M2347 2758 c-22 -13 1 -19 37 -10 21 6 34 7 31 1 -4 -5 0 -9 9 -9 8
0 20 -2 28 -3 7 -2 10 -2 5 0 -4 3 -5 9 -2 14 11 17 -81 24 -108 7z"/>
<path d="M2300 2679 c-56 -17 -62 -32 -10 -25 42 6 44 6 26 -9 -11 -8 -23 -15
-28 -15 -4 0 -8 -4 -8 -10 0 -15 28 -12 55 6 24 16 25 15 25 -5 0 -27 42 -44
91 -38 25 3 43 -1 60 -14 27 -21 49 -25 49 -8 0 5 5 7 10 4 22 -14 8 14 -24
46 -52 54 -176 88 -246 68z"/>
<path d="M2250 2265 c0 -37 43 -106 91 -147 27 -23 49 -47 49 -55 0 -20 17
-16 23 6 6 24 -6 45 -61 100 -24 25 -57 62 -73 81 -23 27 -29 31 -29 15z"/>
<path d="M2240 2062 c0 -5 14 -7 30 -4 17 2 30 6 30 8 0 2 -13 4 -30 4 -16 0
-30 -4 -30 -8z"/>
<path d="M1850 1986 c0 -10 59 -36 82 -36 20 1 20 2 -8 14 -44 19 -74 28 -74
22z"/>
<path d="M1507 1293 c-10 -9 -9 -23 1 -23 5 0 9 7 9 15 0 17 -1 18 -10 8z"/>
<path d="M2980 3010 c0 -5 5 -10 11 -10 5 0 7 5 4 10 -3 6 -8 10 -11 10 -2 0
-4 -4 -4 -10z"/>
<path d="M3260 2581 c0 -5 5 -13 10 -16 6 -3 10 -2 10 4 0 5 -4 13 -10 16 -5
3 -10 2 -10 -4z"/>
<path d="M3281 2540 c0 -8 4 -22 9 -30 12 -18 12 -2 0 25 -6 13 -9 15 -9 5z"/>
<path d="M3565 2019 c-4 -6 -5 -12 -2 -15 2 -3 7 2 10 11 7 17 1 20 -8 4z"/>
<path d="M2160 3985 c0 -8 4 -15 10 -15 5 0 7 7 4 15 -4 8 -8 15 -10 15 -2 0
-4 -7 -4 -15z"/>
<path d="M2210 3983 c8 -4 20 -13 26 -21 9 -13 12 -13 17 1 4 10 -2 17 -16 21
-28 7 -47 6 -27 -1z"/>
<path d="M2280 3964 c0 -8 5 -12 10 -9 6 3 10 10 10 16 0 5 -4 9 -10 9 -5 0
-10 -7 -10 -16z"/>
<path d="M2719 3944 c11 -5 8 -11 -10 -26 -13 -11 -18 -17 -11 -13 6 3 12 0
13 -7 0 -7 4 -5 8 5 6 17 8 17 30 -2 21 -18 24 -18 41 -3 19 16 19 16 -8 28
-29 12 -88 28 -63 18z"/>
<path d="M2810 3887 c0 -17 -37 -40 -42 -26 -2 7 -9 5 -16 -4 -19 -23 34 -30
56 -7 9 9 23 19 30 21 8 3 5 8 -8 17 -16 10 -20 10 -20 -1z"/>
<path d="M2720 3875 c-10 -12 -10 -15 4 -15 9 0 16 7 16 15 0 8 -2 15 -4 15
-2 0 -9 -7 -16 -15z"/>
<path d="M1430 3849 c0 -5 5 -7 10 -4 6 3 10 8 10 11 0 2 -4 4 -10 4 -5 0 -10
-5 -10 -11z"/>
<path d="M2150 3829 c-20 -17 -21 -20 -5 -14 11 4 28 10 38 12 9 3 17 9 17 14
0 15 -24 9 -50 -12z"/>
<path d="M2215 3840 c-4 -6 12 -10 42 -9 39 1 43 3 23 9 -36 11 -58 11 -65 0z"/>
<path d="M2926 3842 c-2 -4 -1 -14 3 -21 6 -9 10 -7 14 8 5 20 -7 29 -17 13z"/>
<path d="M2626 3817 c3 -10 9 -15 12 -12 3 3 0 11 -7 18 -10 9 -11 8 -5 -6z"/>
<path d="M2650 3809 c0 -5 5 -7 10 -4 6 3 10 8 10 11 0 2 -4 4 -10 4 -5 0 -10
-5 -10 -11z"/>
<path d="M2680 3799 c0 -5 5 -7 10 -4 6 3 10 8 10 11 0 2 -4 4 -10 4 -5 0 -10
-5 -10 -11z"/>
<path d="M2715 3800 c3 -5 13 -10 21 -10 8 0 14 5 14 10 0 6 -9 10 -21 10 -11
0 -17 -4 -14 -10z"/>
<path d="M2766 3801 c-4 -7 -5 -15 -2 -18 9 -9 19 4 14 18 -4 11 -6 11 -12 0z"/>
<path d="M2800 3799 c0 -5 5 -7 10 -4 6 3 10 8 10 11 0 2 -4 4 -10 4 -5 0 -10
-5 -10 -11z"/>
<path d="M1353 3743 c9 -2 25 -2 35 0 9 3 1 5 -18 5 -19 0 -27 -2 -17 -5z"/>
<path d="M1438 3743 c17 -2 47 -2 65 0 17 2 3 4 -33 4 -36 0 -50 -2 -32 -4z"/>
<path d="M1715 3740 c-16 -7 -11 -9 20 -9 29 -1 36 2 25 9 -17 11 -19 11 -45
0z"/>
<path d="M1628 3733 c7 -3 16 -2 19 1 4 3 -2 6 -13 5 -11 0 -14 -3 -6 -6z"/>
<path d="M3130 3660 c0 -5 5 -10 11 -10 5 0 7 5 4 10 -3 6 -8 10 -11 10 -2 0
-4 -4 -4 -10z"/>
<path d="M2958 3648 c5 -5 16 -8 23 -6 8 3 3 7 -10 11 -17 4 -21 3 -13 -5z"/>
<path d="M1424 3626 c-10 -8 -16 -18 -11 -22 4 -4 7 -2 7 4 0 7 6 12 14 12 8
0 18 5 21 10 9 15 -8 12 -31 -4z"/>
<path d="M2749 3612 c8 -6 9 -11 3 -13 -6 -2 1 -12 14 -22 19 -14 23 -15 18
-2 -3 8 -10 15 -15 15 -5 0 -8 5 -6 11 1 6 -5 14 -13 16 -12 4 -12 3 -1 -5z"/>
<path d="M3081 3578 c-1 -25 -3 -55 -6 -65 -3 -10 1 -4 9 12 10 22 12 41 6 65
-8 35 -8 35 -9 -12z"/>
<path d="M2815 3550 c-3 -5 -1 -10 4 -10 6 0 11 5 11 10 0 6 -2 10 -4 10 -3 0
-8 -4 -11 -10z"/>
<path d="M1220 3535 c-10 -12 -10 -15 3 -15 19 0 31 16 18 24 -5 3 -14 -1 -21
-9z"/>
<path d="M1391 3524 c0 -11 3 -14 6 -6 3 7 2 16 -1 19 -3 4 -6 -2 -5 -13z"/>
<path d="M765 3470 c-9 -15 3 -29 25 -27 23 1 25 8 8 25 -15 15 -25 15 -33 2z"/>
<path d="M831 3456 c-14 -16 -7 -36 12 -36 7 0 6 4 -3 10 -13 9 -13 11 0 19 8
6 12 13 9 16 -4 3 -12 -1 -18 -9z"/>
<path d="M711 3434 c0 -11 3 -14 6 -6 3 7 2 16 -1 19 -3 4 -6 -2 -5 -13z"/>
<path d="M865 3440 c3 -5 8 -10 11 -10 2 0 4 5 4 10 0 6 -5 10 -11 10 -5 0 -7
-4 -4 -10z"/>
<path d="M1222 3429 c-14 -22 -7 -25 14 -5 8 8 11 17 6 20 -4 2 -13 -4 -20
-15z"/>
<path d="M1170 3436 c0 -2 7 -9 15 -16 13 -11 14 -10 9 4 -5 14 -24 23 -24 12z"/>
<path d="M684 3403 c2 -10 6 -17 9 -15 4 1 17 2 30 2 20 0 20 1 -7 15 -35 19
-35 19 -32 -2z"/>
<path d="M1130 3409 c0 -5 5 -7 10 -4 6 3 10 8 10 11 0 2 -4 4 -10 4 -5 0 -10
-5 -10 -11z"/>
<path d="M1245 3410 c-3 -5 -1 -18 5 -27 11 -17 11 -17 6 0 -3 9 -1 17 4 17 6
0 10 5 10 10 0 13 -17 13 -25 0z"/>
<path d="M2925 3410 c3 -5 8 -10 11 -10 2 0 4 5 4 10 0 6 -5 10 -11 10 -5 0
-7 -4 -4 -10z"/>
<path d="M795 3397 c-4 -10 -5 -21 -1 -24 10 -10 18 4 13 24 -4 17 -4 17 -12
0z"/>
<path d="M2970 3380 c13 -23 20 -26 20 -6 0 8 -7 16 -15 20 -13 4 -14 2 -5
-14z"/>
<path d="M650 3379 c0 -5 4 -8 9 -4 5 3 12 2 15 -3 2 -4 -7 -9 -21 -10 -35 -3
-39 -8 -22 -29 13 -16 12 -17 -3 -5 -9 8 -19 9 -22 4 -3 -6 1 -13 10 -16 27
-10 52 -7 58 10 3 8 2 12 -4 9 -6 -3 -10 -1 -10 5 0 6 10 10 23 8 12 -2 21 -9
20 -16 -2 -6 4 -12 12 -12 8 0 15 5 15 10 0 6 5 10 10 10 6 0 10 -7 10 -16 0
-8 4 -12 10 -9 5 3 8 16 6 27 -2 17 -10 22 -37 22 -19 1 -40 7 -47 13 -16 16
-32 17 -32 2z"/>
<path d="M1220 3374 c0 -5 7 -18 15 -28 12 -16 15 -17 15 -4 0 8 -7 21 -15 28
-8 7 -15 9 -15 4z"/>
<path d="M3125 3370 c3 -5 8 -10 11 -10 2 0 4 5 4 10 0 6 -5 10 -11 10 -5 0
-7 -4 -4 -10z"/>
<path d="M1116 3354 c-11 -7 -16 -17 -11 -21 4 -5 10 -2 12 5 6 15 30 16 35 1
2 -7 10 -4 18 7 10 12 11 15 2 10 -7 -4 -18 -3 -25 2 -8 7 -18 6 -31 -4z"/>
<path d="M3050 3350 c6 -11 13 -20 16 -20 2 0 0 9 -6 20 -6 11 -13 20 -16 20
-2 0 0 -9 6 -20z"/>
<path d="M3310 3360 c0 -5 5 -10 10 -10 6 0 10 5 10 10 0 6 -4 10 -10 10 -5 0
-10 -4 -10 -10z"/>
<path d="M3370 3361 l-25 -7 32 -16 c19 -9 35 -12 39 -7 3 5 -2 9 -11 9 -11 0
-15 5 -11 15 3 8 4 15 3 14 -1 -1 -13 -4 -27 -8z"/>
<path d="M3434 3351 c8 -12 46 -21 46 -11 0 8 -24 20 -41 20 -6 0 -8 -4 -5 -9z"/>
<path d="M3520 3350 c0 -5 9 -14 21 -20 19 -11 20 -10 9 9 -11 22 -30 29 -30
11z"/>
<path d="M790 3340 c0 -5 5 -10 10 -10 6 0 10 5 10 10 0 6 -4 10 -10 10 -5 0
-10 -4 -10 -10z"/>
<path d="M825 3340 c-3 -5 1 -10 10 -10 9 0 13 5 10 10 -3 6 -8 10 -10 10 -2
0 -7 -4 -10 -10z"/>
<path d="M3116 3338 c5 -8 0 -9 -17 -5 -23 6 -23 5 -5 -8 17 -13 15 -19 -5
-17 -3 1 -6 -6 -6 -14 0 -19 4 -18 32 11 29 28 30 31 9 39 -10 4 -13 2 -8 -6z"/>
<path d="M3230 3339 c0 -3 10 -9 21 -12 15 -4 20 -11 16 -21 -7 -17 1 -46 12
-46 3 0 6 18 6 39 0 35 -3 40 -27 43 -16 3 -28 1 -28 -3z"/>
<path d="M1175 3320 c3 -5 8 -10 11 -10 2 0 4 5 4 10 0 6 -5 10 -11 10 -5 0
-7 -4 -4 -10z"/>
<path d="M3290 3310 c0 -8 24 -20 39 -20 20 0 5 25 -16 26 -13 1 -23 -2 -23
-6z"/>
<path d="M3375 3310 c3 -5 11 -10 16 -10 6 0 7 5 4 10 -3 6 -11 10 -16 10 -6
0 -7 -4 -4 -10z"/>
<path d="M3594 3305 c3 -21 16 -31 16 -12 0 9 -4 18 -9 21 -5 4 -8 -1 -7 -9z"/>
<path d="M3640 3311 c0 -6 4 -13 10 -16 6 -3 7 1 4 9 -7 18 -14 21 -14 7z"/>
<path d="M1244 3299 c-3 -6 -14 -9 -24 -6 -10 3 -52 -1 -92 -8 -40 -7 -79 -10
-85 -8 -7 3 -13 0 -13 -5 0 -7 44 -11 130 -9 72 0 130 3 130 4 0 2 -9 12 -20
23 -12 12 -22 15 -26 9z"/>
<path d="M3418 3293 c7 -3 16 -2 19 1 4 3 -2 6 -13 5 -11 0 -14 -3 -6 -6z"/>
<path d="M3537 3294 c-8 -8 1 -24 14 -24 5 0 9 7 9 15 0 15 -12 20 -23 9z"/>
<path d="M948 3274 c13 -9 26 -13 30 -9 8 8 -17 25 -38 25 -9 0 -6 -6 8 -16z"/>
<path d="M900 3230 c0 -5 5 -10 10 -10 6 0 10 5 10 10 0 6 -4 10 -10 10 -5 0
-10 -4 -10 -10z"/>
<path d="M990 3121 c0 -6 5 -13 10 -16 6 -3 10 1 10 9 0 9 -4 16 -10 16 -5 0
-10 -4 -10 -9z"/>
<path d="M1120 3113 c0 -4 8 -15 17 -25 14 -15 14 -21 4 -27 -7 -5 -12 -12
-11 -17 2 -15 -32 -17 -41 -3 -11 19 -22 4 -14 -20 3 -12 13 -21 21 -21 11 0
12 -4 5 -19 -10 -18 -6 -31 11 -31 4 0 8 13 8 29 0 17 6 31 16 35 8 3 12 10 9
16 -3 5 -1 10 5 10 6 0 9 4 6 8 -3 5 6 16 20 26 22 17 36 44 15 32 -4 -3 -22
-1 -40 4 -17 5 -31 6 -31 3z"/>
<path d="M895 3080 c-3 -5 -1 -10 4 -10 6 0 11 5 11 10 0 6 -2 10 -4 10 -3 0
-8 -4 -11 -10z"/>
<path d="M935 3068 c4 -16 4 -19 -3 -9 -5 7 -15 10 -21 6 -7 -4 -18 -2 -25 4
-9 8 -18 7 -32 -4 -18 -14 -18 -14 4 -15 12 0 22 -3 22 -8 0 -4 27 -8 60 -8
45 0 60 3 60 14 0 8 -6 12 -14 9 -8 -3 -17 0 -20 8 -3 10 0 12 12 8 9 -3 14
-3 11 1 -4 4 -19 9 -34 12 -24 4 -26 2 -20 -18z"/>
<path d="M3615 3080 c-8 -13 5 -13 25 0 13 8 13 10 -2 10 -9 0 -20 -4 -23 -10z"/>
<path d="M1080 3070 c8 -5 20 -10 25 -10 6 0 3 5 -5 10 -8 5 -19 10 -25 10 -5
0 -3 -5 5 -10z"/>
<path d="M3621 3036 c-18 -10 -21 -15 -10 -20 10 -4 11 -8 2 -12 -7 -3 -9 -12
-6 -20 3 -8 1 -14 -4 -14 -5 0 -10 -7 -10 -15 0 -17 13 -20 23 -4 3 6 17 8 31
4 18 -4 24 -2 21 7 -3 7 -11 13 -18 13 -7 0 -15 6 -17 13 -3 7 4 12 16 12 12
0 21 6 21 15 0 9 -6 12 -17 8 -12 -5 -15 -2 -10 10 8 20 8 20 -22 3z"/>
<path d="M3765 3040 c4 -6 11 -8 16 -5 14 9 11 15 -7 15 -8 0 -12 -5 -9 -10z"/>
<path d="M857 3013 c-4 -3 -7 -13 -7 -21 0 -12 3 -12 15 -2 8 7 15 16 15 21 0
11 -14 12 -23 2z"/>
<path d="M886 3004 c-9 -24 -7 -28 9 -14 17 14 20 30 6 30 -5 0 -12 -7 -15
-16z"/>
<path d="M3330 3000 c0 -5 5 -10 10 -10 6 0 10 5 10 10 0 6 -4 10 -10 10 -5 0
-10 -4 -10 -10z"/>
<path d="M3710 3000 c0 -5 5 -10 11 -10 5 0 7 5 4 10 -3 6 -8 10 -11 10 -2 0
-4 -4 -4 -10z"/>
<path d="M3741 2994 c0 -11 3 -14 6 -6 3 7 2 16 -1 19 -3 4 -6 -2 -5 -13z"/>
<path d="M3800 3000 c0 -5 7 -10 15 -10 8 0 15 5 15 10 0 6 -7 10 -15 10 -8 0
-15 -4 -15 -10z"/>
<path d="M3210 2966 c0 -9 30 -14 35 -6 4 6 -3 10 -14 10 -12 0 -21 -2 -21 -4z"/>
<path d="M3240 2930 c0 -5 5 -10 11 -10 5 0 7 5 4 10 -3 6 -8 10 -11 10 -2 0
-4 -4 -4 -10z"/>
<path d="M3595 2910 c-3 -5 1 -10 9 -10 9 0 16 5 16 10 0 6 -4 10 -9 10 -6 0
-13 -4 -16 -10z"/>
<path d="M3576 2847 c-16 -12 -16 -14 -2 -26 13 -11 17 -11 22 3 10 26 1 38
-20 23z"/>
<path d="M3690 2829 c0 -5 5 -7 10 -4 6 3 10 8 10 11 0 2 -4 4 -10 4 -5 0 -10
-5 -10 -11z"/>
<path d="M3658 2823 c7 -3 16 -2 19 1 4 3 -2 6 -13 5 -11 0 -14 -3 -6 -6z"/>
<path d="M1128 2783 c6 -2 18 -2 25 0 6 3 1 5 -13 5 -14 0 -19 -2 -12 -5z"/>
<path d="M3755 2360 c3 -5 8 -10 11 -10 2 0 4 5 4 10 0 6 -5 10 -11 10 -5 0
-7 -4 -4 -10z"/>
<path d="M3698 2353 c7 -3 16 -2 19 1 4 3 -2 6 -13 5 -11 0 -14 -3 -6 -6z"/>
<path d="M3622 1924 c14 -14 39 -18 130 -22 62 -2 129 0 148 5 26 7 10 9 -62
5 -87 -4 -128 1 -213 25 -19 5 -19 4 -3 -13z"/>
<path d="M3978 1913 c23 -2 59 -2 80 0 20 2 1 4 -43 4 -44 0 -61 -2 -37 -4z"/>
<path d="M4055 1850 c3 -5 8 -10 11 -10 2 0 4 5 4 10 0 6 -5 10 -11 10 -5 0
-7 -4 -4 -10z"/>
<path d="M3425 1739 c-4 -6 -5 -12 -2 -15 2 -3 7 2 10 11 7 17 1 20 -8 4z"/>
<path d="M3405 1699 c-4 -6 -5 -12 -2 -15 2 -3 7 2 10 11 7 17 1 20 -8 4z"/>
<path d="M3880 1323 c0 -15 18 -35 23 -27 3 5 -1 15 -9 22 -8 7 -14 9 -14 5z"/>
<path d="M3807 1237 c-7 -18 10 -118 23 -131 7 -7 10 -3 10 12 0 12 6 22 13
22 8 0 9 3 1 8 -17 11 -28 82 -12 82 9 0 9 3 -2 10 -20 13 -27 12 -33 -3z"/>
</g>
</svg>
